<svg width="48" height="48" viewBox="0 0 48 48" fill="none" xmlns="http://www.w3.org/2000/svg">
<path d="M23.985 22.5951H20.555V14.8508H23.985C27.223 14.8508 28.8972 16.1836 28.8972 18.7512C28.8972 21.2289 27.1765 22.5951 23.985 22.5951ZM24.6827 14.0651H17.125V14.4298C17.4156 14.4298 18.5784 14.4299 18.5784 16.1416V31.8552C18.5784 33.5669 17.4156 33.5669 17.125 33.5669V33.9316H22.8805V33.5669H22.0084C21.7178 33.5669 20.555 33.5669 20.555 31.8552V23.381H24.6827C27.877 23.381 30.8738 21.992 30.8738 18.7512C30.8738 15.4541 27.877 14.0651 24.6827 14.0651Z" fill="#F7F4F0"/>
<path d="M24 45.7814C14.7707 45.7814 7.26243 36.0105 7.26243 23.9997C7.26243 11.9896 14.7707 2.21874 24 2.21874C33.2293 2.21874 40.7375 11.9896 40.7375 23.9997C40.7375 36.0105 33.2293 45.7814 24 45.7814ZM24 1C14.0747 1 6 11.3178 6 23.9997C6 36.6823 14.0747 47 24 47C33.9253 47 42 36.6823 42 23.9997C42 11.3178 33.9253 1 24 1Z" fill="#F7F4F0"/>
</svg>
