<?xml version="1.0" encoding="UTF-8" standalone="no"?>
<!-- Created with Inkscape (http://www.inkscape.org/) -->

<svg
   version="1.1"
   id="svg1"
   width="1032.6801"
   height="954.93335"
   viewBox="0 0 1032.6801 954.93335"
   sodipodi:docname="Pasted Logo's (EPS)-04.eps"
   xmlns:inkscape="http://www.inkscape.org/namespaces/inkscape"
   xmlns:sodipodi="http://sodipodi.sourceforge.net/DTD/sodipodi-0.dtd"
   xmlns="http://www.w3.org/2000/svg"
   xmlns:svg="http://www.w3.org/2000/svg">
  <defs
     id="defs1" />
  <sodipodi:namedview
     id="namedview1"
     pagecolor="#ffffff"
     bordercolor="#000000"
     borderopacity="0.25"
     inkscape:showpageshadow="2"
     inkscape:pageopacity="0.0"
     inkscape:pagecheckerboard="0"
     inkscape:deskcolor="#d1d1d1">
    <inkscape:page
       x="0"
       y="0"
       inkscape:label="1"
       id="page1"
       width="1032.6801"
       height="954.93335"
       margin="0"
       bleed="0" />
  </sodipodi:namedview>
  <g
     id="g1"
     inkscape:groupmode="layer"
     inkscape:label="1">
    <g
       id="group-R5">
      <path
         id="path2"
         d="m 3871.04,3736.81 h -367.67 v 859.94 h 367.67 c 347.08,0 526.54,-148 526.54,-433.11 0,-275.12 -184.45,-426.83 -526.54,-426.83 z m 74.78,947.18 h -810.11 v -40.5 c 31.15,0 155.79,0 155.79,-190.07 V 2708.56 c 0,-190.07 -124.64,-190.07 -155.79,-190.07 v -40.5 h 616.93 v 40.5 h -93.48 c -31.15,0 -155.79,0 -155.79,190.07 v 940.98 h 442.45 c 342.4,0 663.63,154.24 663.63,514.1 0,366.12 -321.23,520.35 -663.63,520.35"
         style="fill:#f7f4f0;fill-opacity:1;fill-rule:nonzero;stroke:none"
         transform="matrix(0.13333333,0,0,-0.13333333,0,954.93333)" />
      <path
         id="path3"
         d="m 3872.57,1162.36 c -989.29,0 -1794.1,1084.97 -1794.1,2418.66 0,1333.61 804.81,2418.58 1794.1,2418.58 989.3,0 1794.1,-1084.97 1794.1,-2418.58 0,-1333.69 -804.8,-2418.66 -1794.1,-2418.66 z m 0,4972.57 c -1063.89,0 -1929.42,-1145.7 -1929.42,-2553.91 0,-1408.29 865.53,-2553.98 1929.42,-2553.98 1063.9,0 1929.43,1145.69 1929.43,2553.98 0,1408.21 -865.53,2553.91 -1929.43,2553.91"
         style="fill:#f7f4f0;fill-opacity:1;fill-rule:nonzero;stroke:none"
         transform="matrix(0.13333333,0,0,-0.13333333,0,954.93333)" />
    </g>
  </g>
</svg>
